<svg xmlns="http://www.w3.org/2000/svg" viewBox="0 0 240 160" role="img" aria-label="Nyenrode castle silhouette">
  <rect width="240" height="160" fill="#F0F2F5"/>
  <rect x="40" y="70" width="160" height="70" fill="#355071"/>
  <rect x="30" y="50" width="28" height="90" fill="#5D7291"/>
  <rect x="182" y="50" width="28" height="90" fill="#5D7291"/>
  <path d="M30 50 h28 v-12 h-6 v6 h-6 v-6 h-6 v6 h-4 z" fill="#355071"/>
  <path d="M182 50 h28 v-12 h-6 v6 h-6 v-6 h-6 v6 h-4 z" fill="#355071"/>
  <rect x="112" y="96" width="20" height="44" fill="#5D7291"/>
  <path d="M112 96 a10 10 0 0 1 20 0 z" fill="#5D7291"/>
  <rect x="70" y="88" width="14" height="16" fill="#F0F2F5"/>
  <rect x="156" y="88" width="14" height="16" fill="#F0F2F5"/>
  <rect x="24" y="140" width="192" height="6" fill="#355071"/>
</svg>
